<?xml version="1.0" encoding="iso-8859-1"?>
<!-- Generator: Adobe Illustrator 19.0.0, SVG Export Plug-In . SVG Version: 6.00 Build 0)  -->
<svg version="1.1" id="Capa_1" xmlns="http://www.w3.org/2000/svg" xmlns:xlink="http://www.w3.org/1999/xlink" x="0px" y="0px"
	 viewBox="0 0 512 512" style="enable-background:new 0 0 512 512;" xml:space="preserve">
<path style="fill:#343E6B;" d="M96.194,452.446c-9.754,0-17.66-7.907-17.66-17.66V293.623c0-9.754,7.907-17.66,17.66-17.66
	s17.66,7.907,17.66,17.66v141.163C113.854,444.539,105.948,452.446,96.194,452.446z"/>
<path style="fill:#414B82;" d="M53.561,452.446c-9.754,0-17.66-7.907-17.66-17.66V293.623c0-9.754,7.907-17.66,17.66-17.66
	s17.66,7.907,17.66,17.66v141.163C71.221,444.539,63.315,452.446,53.561,452.446z"/>
<path style="fill:#FFB69E;" d="M149.751,186.935c-0.096-19.108-15.963-34.653-35.371-34.653H74.938h-0.126H35.371
	c-19.408,0-35.274,15.545-35.371,34.653c0,0.025,0,0.049,0,0.074v108.122c0,8.128,6.589,14.717,14.718,14.717
	s14.718-6.589,14.718-14.717V187.057c0.031-2.798,2.853-5.341,5.937-5.341h0.53v111.906h77.954V181.717h0.526
	c3.084,0,5.905,2.543,5.937,5.341v108.073c0,8.128,6.589,14.717,14.718,14.717c8.128,0,14.718-6.589,14.718-14.717V187.009
	C149.752,186.984,149.752,186.96,149.751,186.935z"/>
<path style="fill:#64AFFF;" d="M149.751,186.935c-0.096-19.108-15.963-34.653-35.371-34.653H90.408
	c0.312,8.923-7.979,16.496-16.635,16.496c-9.277,0-16.156-7.545-16.624-16.496H35.371c-19.408,0-35.274,15.545-35.371,34.653
	c0,0.025,0,0.049,0,0.074v31.82h29.434v-31.772c0.031-2.798,2.853-5.341,5.937-5.341h0.53v111.906h77.954V181.717h0.526
	c3.084,0,5.905,2.543,5.937,5.341v31.772h29.434v-31.82C149.752,186.984,149.752,186.96,149.751,186.935z"/>
<circle style="fill:#FFB69E;" cx="74.875" cy="112.388" r="30.501"/>
<path style="fill:#50374B;" d="M253.708,452.446c-9.754,0-17.66-7.907-17.66-17.66V293.623c0-9.754,7.907-17.66,17.66-17.66
	s17.66,7.907,17.66,17.66v141.163C271.368,444.539,263.46,452.446,253.708,452.446z"/>
<path style="fill:#695A6E;" d="M211.075,452.446c-9.754,0-17.66-7.907-17.66-17.66V293.623c0-9.754,7.907-17.66,17.66-17.66
	s17.66,7.907,17.66,17.66v141.163C228.735,444.539,220.828,452.446,211.075,452.446z"/>
<path style="fill:#BA6746;" d="M307.264,186.935c-0.096-19.108-15.963-34.653-35.371-34.653h-39.442h-0.126h-39.442
	c-19.408,0-35.274,15.545-35.371,34.653c0,0.025,0,0.049,0,0.074v108.122c0,8.128,6.589,14.717,14.718,14.717
	c8.128,0,14.718-6.589,14.718-14.717V187.057c0.031-2.798,2.853-5.341,5.937-5.341h0.53v111.906h77.954V181.717h0.526
	c3.084,0,5.905,2.543,5.936,5.341v108.073c0,8.128,6.589,14.717,14.718,14.717c8.128,0,14.718-6.589,14.718-14.717V187.009
	C307.264,186.984,307.264,186.96,307.264,186.935z"/>
<path style="fill:#FF3C3C;" d="M307.264,186.935c-0.096-19.108-15.963-34.653-35.371-34.653H247.92
	c0.312,8.923-7.98,16.496-16.635,16.496c-9.277,0-16.156-7.545-16.624-16.496h-21.776c-19.408,0-35.274,15.545-35.371,34.653
	c0,0.025,0,0.049,0,0.074v31.82h29.434v-31.772c0.031-2.798,2.853-5.341,5.937-5.341h0.53v111.906h77.954V181.717h0.526
	c3.084,0,5.905,2.543,5.937,5.341v31.772h29.434v-31.82C307.264,186.984,307.264,186.96,307.264,186.935z"/>
<circle style="fill:#BA6746;" cx="232.381" cy="112.388" r="30.501"/>
<path style="fill:#42464A;" d="M411.668,452.446c-9.768,0-17.685-7.918-17.685-17.685V283.604c0-9.767,7.917-17.685,17.685-17.685
	s17.685,7.918,17.685,17.685V434.76C429.354,444.528,421.435,452.446,411.668,452.446z"/>
<path style="fill:#50555A;" d="M368.975,452.446c-9.768,0-17.685-7.918-17.685-17.685V283.604c0-9.767,7.917-17.685,17.685-17.685
	c9.768,0,17.685,7.918,17.685,17.685V434.76C386.661,444.528,378.742,452.446,368.975,452.446z"/>
<path style="fill:#FFB69E;" d="M502.134,60.387c-7.68-2.691-16.091,1.352-18.783,9.033l-20.476,58.415l-45.61,24.328
	c-12.999,0-50.09,0-66.661,0c-19.435,0-35.325,15.567-35.421,34.777v108.273c0,8.14,6.598,14.738,14.738,14.738
	c8.139,0,14.738-6.599,14.738-14.738V187.014c0.014-2.812,2.848-5.374,5.946-5.374h0.686V293.4h78.064V179.122l52.464-27.983
	c3.261-1.739,5.75-4.64,6.973-8.129l22.377-63.839C513.859,71.49,509.815,63.08,502.134,60.387z"/>
<path style="fill:#414B82;" d="M449.452,134.995l-32.186,17.168H406.09c0.323,8.305-7.39,15.363-15.441,15.363
	c-8.629,0-15.022-7.032-15.433-15.363h-24.613c-19.435,0-35.325,15.567-35.421,34.777v31.747h29.475v-31.673
	c0.014-2.812,2.848-5.374,5.946-5.374h0.686V293.4h78.064V179.122l34.731-18.526L449.452,134.995z"/>
<circle style="fill:#FFB69E;" cx="390.318" cy="111.887" r="30.544"/>
<g>
</g>
<g>
</g>
<g>
</g>
<g>
</g>
<g>
</g>
<g>
</g>
<g>
</g>
<g>
</g>
<g>
</g>
<g>
</g>
<g>
</g>
<g>
</g>
<g>
</g>
<g>
</g>
<g>
</g>
</svg>
