<?xml version="1.0" encoding="iso-8859-1"?>
<!-- Generator: Adobe Illustrator 19.0.0, SVG Export Plug-In . SVG Version: 6.00 Build 0)  -->
<svg version="1.1" id="Capa_1" xmlns="http://www.w3.org/2000/svg" xmlns:xlink="http://www.w3.org/1999/xlink" x="0px" y="0px"
	 viewBox="0 0 432.004 432.004" style="enable-background:new 0 0 432.004 432.004;" xml:space="preserve">
<g>
	<path style="fill:#003961;" d="M58.231,120.004c8.837,0,16,7.163,16,16s-7.163,16-16,16V120.004z"/>
	<path style="fill:#003961;" d="M58.231,136.004v16c-1.718-0.006-3.422-0.304-5.04-0.88L58.231,136.004z"/>
	<path style="fill:#003961;" d="M58.231,136.004l-5.04,15.12c-8.351-2.888-12.78-12-9.891-20.351
		c2.207-6.38,8.181-10.689,14.931-10.769V136.004z"/>
</g>
<path style="fill:#0F6FC6;" d="M330.231,112.724l-96,39.28l-96-39.28l-80-32.72l176-72l176,72L330.231,112.724z"/>
<path style="fill:#005A98;" d="M327.751,170.564l-30.88,23.52c-39.035,21.334-86.245,21.334-125.28,0
	c-11.434-6.217-21.848-14.149-30.88-23.52c-0.88-0.8-1.68-1.68-2.48-2.56v-55.28l96,39.28l96-39.28v55.28
	C329.431,168.884,328.631,169.764,327.751,170.564L327.751,170.564z"/>
<g>
	<path style="fill:#003961;" d="M50.231,80.004h16v56h-16V80.004z"/>
	<path style="fill:#003961;" d="M47.887,221.66l-11.312-11.312c8.716-8.769,13.623-20.621,13.656-32.984v-41.36h16v41.36
		C66.185,193.968,59.593,209.884,47.887,221.66L47.887,221.66z"/>
	<path style="fill:#003961;" d="M22.687,206.652l-8.912-13.296c14.039-9.408,24.579-23.188,29.984-39.2l6.88-20.64l15.2,5.056
		l-6.88,20.64C52.422,178.588,39.671,195.264,22.687,206.652z"/>
</g>
<g>
	<path style="fill:#F29823;" d="M234.231,432.004c-83.947,0.006-152.005-68.041-152.012-151.988
		c-0.003-44.437,19.439-86.651,53.212-115.532l10.4,12.16c-57.079,48.822-63.773,134.672-14.951,191.751
		s134.672,63.773,191.751,14.951s63.773-134.672,14.951-191.751c-4.588-5.364-9.587-10.363-14.951-14.951l10.4-12.144
		c63.791,54.57,71.267,150.52,16.697,214.311C320.851,412.567,278.653,432.002,234.231,432.004L234.231,432.004z"/>
	<path style="fill:#F29823;" d="M234.231,432.004c-29.688,0-56.76-25.992-72.408-69.528c-9.232-26.506-13.83-54.405-13.592-82.472
		c-0.318-30.367,5.086-60.521,15.928-88.888l14.864,5.936c-10.093,26.477-15.112,54.618-14.792,82.952
		c-0.244,26.21,4.032,52.266,12.64,77.024c13.28,36.944,34.712,58.976,57.36,58.976s44.08-22.032,57.352-58.944
		c8.612-24.768,12.89-50.835,12.648-77.056c0.317-28.335-4.704-56.475-14.8-82.952l14.864-5.936
		c10.845,28.366,16.251,58.521,15.936,88.888c0.238,28.076-4.363,55.982-13.6,82.496
		C291.031,406.012,263.919,432.004,234.231,432.004L234.231,432.004z"/>
	<path style="fill:#F29823;" d="M341.591,384.004c-1.399,0-2.776-0.355-4-1.032c-12.711-6.935-26.297-12.128-40.392-15.44
		c-41.377-9.848-84.487-9.848-125.864,0c-14.115,3.315-27.719,8.514-40.448,15.456c-1.203,0.672-2.558,1.022-3.936,1.016v-8.072
		l-3.888-6.896c13.957-7.644,28.881-13.373,44.368-17.032c43.937-10.468,89.719-10.468,133.656,0
		c15.479,3.662,30.394,9.391,44.344,17.032l-3.888,6.896L341.591,384.004z"/>
	<path style="fill:#F29823;" d="M90.231,272.004h288v16h-288V272.004z"/>
	<path style="fill:#F29823;" d="M242.231,424.004h-16v-213.92l16-0.08V424.004z"/>
</g>
<path style="fill:#005A98;" d="M234.231,218.084c-23.232-0.009-46.09-5.849-66.48-16.984c-12.144-6.602-23.206-15.025-32.8-24.976
	c-0.672-0.584-1.6-1.6-2.584-2.672c-1.358-1.492-2.118-3.431-2.136-5.448v-55.28l16-0.72v52.8
	c8.539,8.859,18.377,16.367,29.176,22.264c36.556,19.569,80.449,19.68,117.104,0.296l29.72-22.656v-52l16-0.704v56
	c-0.001,1.992-0.746,3.912-2.088,5.384c-1.008,1.112-1.968,2.152-3.016,3.104l-31.408,23.952c-0.32,0.243-0.657,0.462-1.008,0.656
	C280.321,212.235,257.463,218.075,234.231,218.084L234.231,218.084z"/>
<path style="fill:#0F6FC6;" d="M234.231,160.004c-1.04-0.001-2.07-0.205-3.032-0.6l-176-72c-4.091-1.668-6.056-6.337-4.388-10.428
	c0.813-1.993,2.394-3.575,4.388-4.388l176-72c1.94-0.784,4.108-0.784,6.048,0l176,72c4.091,1.668,6.056,6.337,4.388,10.428
	c-0.813,1.993-2.394,3.575-4.388,4.388l-176,72C236.29,159.797,235.266,160.001,234.231,160.004L234.231,160.004z M79.367,80.004
	l154.864,63.352l92.968-38.032l61.896-25.32L234.231,16.652L79.367,80.004z"/>
<g>
</g>
<g>
</g>
<g>
</g>
<g>
</g>
<g>
</g>
<g>
</g>
<g>
</g>
<g>
</g>
<g>
</g>
<g>
</g>
<g>
</g>
<g>
</g>
<g>
</g>
<g>
</g>
<g>
</g>
</svg>
