<svg xmlns="http://www.w3.org/2000/svg" xmlns:xlink="http://www.w3.org/1999/xlink" version="1.1" style="" xml:space="preserve" width="512" height="512"><rect id="backgroundrect" width="100%" height="100%" x="0" y="0" fill="none" stroke="none"/><defs><linearGradient id="svg_31" spreadMethod="pad" x2="1" y2="0" x1="0.7781249284744263" y1="0.2109375"><stop stop-color="#4a90d6" stop-opacity="1" offset="0"/><stop stop-color="#b56f29" stop-opacity="1" offset="1"/></linearGradient></defs>






























<g class="currentLayer" style=""><title>Layer 1</title><path style="fill:#343E6B;" d="M141.341,490c-12.433,0-22.513-10.079-22.513-22.513V287.543c0-12.433,10.079-22.513,22.513-22.513  c12.433,0,22.513,10.079,22.513,22.513v179.945C163.854,479.921,153.775,490,141.341,490z" id="svg_1"/><path style="fill:#414B82;" d="M86.996,490c-12.433,0-22.513-10.079-22.513-22.513V287.543c0-12.433,10.079-22.513,22.513-22.513  s22.513,10.079,22.513,22.513v179.945C109.509,479.921,99.429,490,86.996,490z" id="svg_2"/><path style="fill:#FFB69E;" d="M209.612,151.544c-0.122-24.357-20.349-44.173-45.088-44.173h-50.277h-0.161H63.808  c-24.739,0-44.966,19.816-45.088,44.173c0,0.032,0,0.063,0,0.094v137.826c0,10.361,8.399,18.76,18.76,18.76s18.76-8.399,18.76-18.76  V151.7c0.04-3.567,3.637-6.809,7.567-6.809h0.675v142.651h99.371v-142.65h0.67c3.931,0,7.528,3.241,7.567,6.809v137.764  c0,10.361,8.399,18.76,18.76,18.76c10.361,0,18.76-8.399,18.76-18.76V151.639C209.613,151.607,209.613,151.576,209.612,151.544z" id="svg_3" class=""/><path style="fill:#64AFFF;" d="M209.612,151.544c-0.122-24.357-20.349-44.173-45.088-44.173h-30.559  c0.397,11.374-10.171,21.028-21.205,21.028c-11.826,0-20.595-9.617-21.191-21.028H63.808c-24.739,0-44.966,19.816-45.088,44.173  c0,0.032,0,0.063,0,0.094V192.2h37.521v-40.5c0.04-3.567,3.637-6.809,7.567-6.809h0.675v142.651h99.371v-142.65h0.67  c3.931,0,7.528,3.241,7.567,6.809v40.5h37.521v-40.562C209.613,151.607,209.613,151.576,209.612,151.544z" id="svg_4" class=""/><path fill="#eb1a1a" fill-opacity="1" stroke="none" stroke-opacity="1" stroke-width="1" stroke-dasharray="none" stroke-linejoin="miter" stroke-linecap="butt" stroke-dashoffset="" fill-rule="nonzero" opacity="1" marker-start="" marker-mid="" marker-end="" d="M205.87457242457901,150.51418002859415 C106.70752435100086,393.5080293334083 110.83948468740009,393.5080293334083 110.3849707409682,393.1712832517109 C110.83948468740009,393.5080293334083 214.1384930973773,357.1546188074913 213.68397859120915,356.81787292277863 " style="color: rgb(45, 96, 147);" class="" transform="rotate(1.9831817150115967 162.03521728515457,271.85458374023455) " id="svg_39"/><circle style="fill:#FFB69E;" cx="114.16000366210938" cy="56.52000045776367" r="38.88100051879883" id="svg_5"/><path style="fill:#50374B;" d="M425.009,490c-12.433,0-22.513-10.079-22.513-22.513V287.543c0-12.433,10.079-22.513,22.513-22.513  s22.513,10.079,22.513,22.513v179.945C447.521,479.921,437.442,490,425.009,490z" id="svg_6"/><path style="fill:#695A6E;" d="M370.663,490c-12.433,0-22.513-10.079-22.513-22.513V287.543c0-12.433,10.079-22.513,22.513-22.513  c12.433,0,22.513,10.079,22.513,22.513v179.945C393.176,479.921,383.096,490,370.663,490z" id="svg_7" class=""/><path style="fill:#BA6746;" d="M493.28,151.544c-0.122-24.357-20.349-44.173-45.088-44.173h-50.277h-0.161h-50.277  c-24.739,0-44.966,19.816-45.088,44.173c0,0.032,0,0.063,0,0.094v137.826c0,10.361,8.399,18.76,18.76,18.76s18.76-8.399,18.76-18.76  V151.7c0.04-3.567,3.637-6.809,7.567-6.809h0.675v142.651h99.371v-142.65h0.67c3.931,0,7.528,3.241,7.567,6.809v137.764  c0,10.361,8.399,18.76,18.76,18.76c10.361,0,18.76-8.399,18.76-18.76V151.639C493.28,151.607,493.28,151.576,493.28,151.544z" id="svg_8" class=""/><path style="fill:#FF3C3C;" d="M493.28,151.544c-0.122-24.357-20.349-44.173-45.088-44.173h-30.559  c0.397,11.374-10.171,21.028-21.205,21.028c-11.826,0-20.595-9.617-21.191-21.028h-27.761c-24.739,0-44.966,19.816-45.088,44.173  c0,0.032,0,0.063,0,0.094V192.2h37.521v-40.5c0.04-3.567,3.637-6.809,7.567-6.809h0.675v142.651h99.371v-142.65h0.67  c3.931,0,7.528,3.241,7.567,6.809v40.5h37.521v-40.562C493.28,151.607,493.28,151.576,493.28,151.544z" id="svg_9" class=""/><circle style="fill:#BA6746;" cx="397.8299865722656" cy="56.52000045776367" r="38.88100051879883" id="svg_10" class=""/><path style="" d="M297.712,512c-12.729,0-23.047-10.318-23.047-23.047V291.972c0-12.728,10.318-23.047,23.047-23.047  s23.047,10.318,23.047,23.047v196.981C320.759,501.682,310.441,512,297.712,512z" id="svg_11" class="" fill="#4141e8" fill-opacity="1"/><path style="" d="M242.077,512c-12.729,0-23.047-10.318-23.047-23.047V291.972c0-12.728,10.318-23.047,23.047-23.047  s23.047,10.318,23.047,23.047v196.981C265.123,501.682,254.805,512,242.077,512z" id="svg_12" class="" fill="#4141e8" fill-opacity="1" stroke-opacity="1" stroke="#2d6093"/><path style="" d="M415.603,1.086c-10.008-3.508-20.969,1.761-24.478,11.771l-26.684,76.124l-59.436,31.703  c-16.94,0-65.276,0-86.87,0c-25.326,0-46.033,20.287-46.159,45.319V307.1c0,10.607,8.599,19.206,19.206,19.206  s19.206-8.599,19.206-19.206l-0.001-141c0.019-3.666,3.711-7.003,7.748-7.003h0.895v145.642h101.729V155.815l68.368-36.467  c4.25-2.267,7.493-6.047,9.086-10.593l29.161-83.192C430.883,15.554,425.613,4.595,415.603,1.086z" id="svg_13" class="" fill-opacity="1" fill="#4141e8"/><path style="" d="M415.603,1.086 c-10.008,-3.508 -20.969,1.7610000000000001 -24.478,11.771 l-26.684,76.124 l-59.436,31.703 c-16.94,0 -65.276,0 -86.87,0 c-25.326,0 -46.033,20.287 -46.159,45.319 V307.1 c0,10.607 8.599,19.206 19.206,19.206 s19.206,-8.599 19.206,-19.206 l-0.0010000000000000002,-141 c0.019000000000000003,-3.6660000000000004 3.7110000000000003,-7.003 7.748,-7.003 h0.8950000000000001 v145.642 h101.729 V155.815 l68.368,-36.467 c4.25,-2.267 7.493,-6.047 9.086,-10.593 l29.161,-83.192 C430.883,15.554 425.613,4.595 415.603,1.086 z" class="" fill-opacity="1" fill="#4141e8" id="svg_38"/><path style="" d="M346.95,98.311l-41.944,22.373h-14.562c0.42,10.822-9.63,20.02-20.122,20.02  c-11.245,0-19.576-9.163-20.111-20.02h-32.075c-25.326,0-46.033,20.287-46.159,45.319v41.371h38.411V166.1  c0.019-3.666,3.711-7.003,7.748-7.003h0.895v145.642H320.76V155.815l45.261-24.142L346.95,98.311z" id="svg_14" class="" fill-opacity="1" fill="#4141e8"/><path style="" d="M346.95,98.311 l-41.944,22.373 h-14.562 c0.42000000000000004,10.822 -9.63,20.02 -20.122,20.02 c-11.245,0 -19.576,-9.163 -20.111,-20.02 h-32.075 c-25.326,0 -46.033,20.287 -46.159,45.319 v41.371 h38.411 V166.1 c0.019000000000000003,-3.6660000000000004 3.7110000000000003,-7.003 7.748,-7.003 h0.8950000000000001 v145.642 H320.76 V155.815 l45.261,-24.142 L346.95,98.311 z" class="" fill-opacity="1" fill="#4141e8" id="svg_37"/><circle style="" cx="269.8900146484375" cy="68.19000244140625" r="39.80400085449219" id="svg_15" class="" fill="#4141e8" fill-opacity="1"/><g id="svg_16">
</g><g id="svg_17">
</g><g id="svg_18">
</g><g id="svg_19">
</g><g id="svg_20">
</g><g id="svg_21">
</g><g id="svg_22">
</g><g id="svg_23">
</g><g id="svg_24">
</g><g id="svg_25">
</g><g id="svg_26">
</g><g id="svg_27">
</g><g id="svg_28">
</g><g id="svg_29">
</g><g id="svg_30">
</g><path fill="#eb1a1a" fill-opacity="1" stroke="none" stroke-opacity="1" stroke-width="1" stroke-dasharray="none" stroke-linejoin="miter" stroke-linecap="butt" stroke-dashoffset="" fill-rule="nonzero" opacity="1" marker-start="" marker-mid="" marker-end="" id="svg_32" d="M332.9365123272187,151.45453354135586 C430.87607689312017,393.19459880368 426.79526170287414,393.19459880368 427.244149704155,392.8595902427668 C426.79526170287414,393.19459880368 324.7748819467268,357.0287622683717 325.22377050081553,356.69375390342685 " style="color: rgb(45, 96, 147);" class="" transform="rotate(-2.4717419147491455 376.2332153320306,272.1688842773439) "/><path fill="#ffffff" fill-opacity="1" stroke="none" stroke-opacity="1" stroke-width="1" stroke-dasharray="none" stroke-linejoin="miter" stroke-linecap="butt" stroke-dashoffset="" fill-rule="nonzero" opacity="1" marker-start="" marker-mid="" marker-end="" id="svg_33" d="M-75.2499990283765,138.83636244663523 " style="color: rgb(45, 96, 147);"/><path fill="#eb1a1a" fill-opacity="1" stroke="none" stroke-opacity="1" stroke-width="1" stroke-dasharray="none" stroke-linejoin="miter" stroke-linecap="butt" stroke-dashoffset="" fill-rule="nonzero" opacity="1" marker-start="" marker-mid="" marker-end="" id="svg_40" d="M-127.52272658434896,203.60909007034027 " style="color: rgb(45, 96, 147);"/></g></svg>