<svg id="Layer_35" enable-background="new 0 0 64 64" height="512" viewBox="0 0 64 64" width="512" xmlns="http://www.w3.org/2000/svg"><path d="m16 62h-10c0-6.05 3.66-11.5 9.26-13.79l.76-.31 2.63-1.08c1.62.93 3.51 1.68 5.61 2.23l1.74 6.95h-4v6z" fill="#fcd770"/><path d="m35.55 49.81-1.55 6.19h-4l-1.55-6.19c1.15.12 2.34.19 3.55.19s2.4-.07 3.55-.19z" fill="#fcd770"/><path d="m48 47.91.74.3c2.8 1.15 5.12 3.08 6.73 5.49 1.61 2.4 2.53 5.28 2.53 8.3h-10-6v-6h-4l1.74-6.95c2.1-.55 3.99-1.3 5.61-2.23z" fill="#fcd770"/><path d="m42 56v6h-20v-6h4 4 4 4z" fill="#e6e9ed"/><path d="m28.45 49.81 1.55 6.19h-4l-1.74-6.95-1.02-4.1 2.27-.93c.48-.2.92-.49 1.28-.85z" fill="#969faa"/><path d="m40.76 44.95-1.02 4.1-1.74 6.95h-4l1.55-6.19 1.66-6.64c.36.36.8.65 1.28.85z" fill="#969faa"/><path d="m20.13 22c-.09.32-.13.65-.13 1v1.35c0 3.77 1.21 7.34 3.31 10.26 1.27 1.75 2.85 3.27 4.69 4.46v1.24c0 1.1-.45 2.13-1.21 2.86-.36.36-.8.65-1.28.85l-2.27.93-4.59 1.87-2.63 1.08-.02-.05v-30.29c0-8.6 6.96-15.56 15.56-15.56 2.06 0 4.08.41 5.95 1.18 1.87.78 3.59 1.92 5.05 3.38l1.44 1.44c-3.16 2.53-5 6.36-5 10.4v.6h-15c-1.86 0-3.43 1.27-3.87 3z" fill="#b27946"/><path d="m48 13.12v34.79l-2.65-1.09-4.59-1.87-2.27-.93c-.48-.2-.92-.49-1.28-.85-.76-.73-1.21-1.76-1.21-2.86v-1.24c4.91-3.18 8-8.68 8-14.72v-1.35c0-.35-.04-.68-.13-1-.44-1.73-2.01-3-3.87-3h-1v-.6c0-4.04 1.84-7.87 5-10.4 1.18.3 2.18.97 2.88 1.87.71.91 1.12 2.04 1.12 3.25z" fill="#b27946"/><g fill="#f0d0b4"><path d="m40.76 44.95 4.59 1.87c-1.62.93-3.51 1.68-5.61 2.23z"/><path d="m23.24 44.95 1.02 4.1c-2.1-.55-3.99-1.3-5.61-2.23z"/><path d="m37.21 43.17-1.66 6.64c-1.15.12-2.34.19-3.55.19s-2.4-.07-3.55-.19l-1.66-6.64c.76-.73 1.21-1.76 1.21-2.86v-1.24c1.23.8 2.57 1.45 4 1.93 1.43-.48 2.77-1.13 4-1.93v1.24c0 1.1.45 2.13 1.21 2.86z"/><path d="m43.87 22c-.44-1.73-2.01-3-3.87-3h-1-15c-1.86 0-3.43 1.27-3.87 3-.09.32-.13.65-.13 1v1.35c0 3.77 1.21 7.34 3.31 10.26 1.27 1.75 2.85 3.27 4.69 4.46 1.23.8 2.57 1.45 4 1.93 1.43-.48 2.77-1.13 4-1.93 4.91-3.18 8-8.68 8-14.72v-1.35c0-.35-.04-.68-.13-1z"/></g><path d="m30 22v2c0 1.1-.45 2.1-1.17 2.83-.73.72-1.73 1.17-2.83 1.17-2.21 0-4-1.79-4-4v-2z" fill="#69d6f4"/><path d="m42 22v2c0 1.1-.45 2.1-1.17 2.83-.73.72-1.73 1.17-2.83 1.17-2.21 0-4-1.79-4-4v-2z" fill="#69d6f4"/><path d="m21.626 14.333-1.886-.666c-.249.704-.438 1.434-.561 2.168l1.973.33c.104-.62.264-1.236.474-1.832z"/><path d="m32 7v-2c-4.626 0-8.941 2.49-11.26 6.499l1.731 1.002c1.963-3.394 5.614-5.501 9.529-5.501z"/><path d="m32 36c2.206 0 4-1.794 4-4h-2c0 1.103-.897 2-2 2s-2-.897-2-2h-2c0 2.206 1.794 4 4 4z"/><path d="m49.123 47.288-.123-.05v-34.115c0-2.791-1.828-5.225-4.48-6.017l-1.257-1.256c-3.126-3.127-7.284-4.85-11.707-4.85-9.129 0-16.556 7.428-16.556 16.557v29.681l-.123.05c-6 2.455-9.877 8.23-9.877 14.712v1h54v-1c0-6.482-3.877-12.257-9.877-14.712zm-2.123-34.165v33.296l-8.136-3.329c-1.132-.462-1.864-1.552-1.864-2.776v-.718c4.921-3.401 8-9.039 8-15.246v-1.35c0-2.749-2.231-4.985-4.978-4.998.11-3.434 1.624-6.616 4.21-8.87 1.649.624 2.768 2.193 2.768 3.991zm-6 47.877h-18v-4h18zm-18.453-14.689.319 1.278c-.618-.206-1.206-.436-1.777-.681zm1.871-.765 1.476-.604c.097-.04.184-.093.277-.138l2.548 10.196h-1.938zm15.582-25.546c.883 0 1.67.391 2.22 1h-9.22v2h-2v-2h-9.22c.549-.609 1.337-1 2.22-1zm1 3v1c0 1.654-1.346 3-3 3s-3-1.346-3-3v-1zm-12 0v1c0 1.654-1.346 3-3 3s-3-1.346-3-3v-1zm-8 1c0 2.757 2.243 5 5 5 2.414 0 4.434-1.721 4.899-4h2.202c.465 2.279 2.484 4 4.899 4 2.757 0 5-2.243 5-5v.351c0 7.023-4.406 13.247-11 15.592-6.594-2.345-11-8.568-11-15.592zm10.684 17.948.316.106.316-.105c.947-.316 1.855-.702 2.719-1.152.094.986.473 1.897 1.073 2.644l-1.358 5.43c-1.814.157-3.689.157-5.503 0l-1.358-5.43c.601-.747.979-1.658 1.073-2.644.866.449 1.775.836 2.722 1.151zm-.903 13.052-1.02-4.082c.741.049 1.488.082 2.239.082s1.498-.033 2.24-.082l-1.021 4.082zm4.5 0 2.549-10.196c.093.045.18.099.277.138l1.476.604-2.364 9.454zm6.172-8.689 1.457.596c-.57.246-1.159.476-1.776.682zm-24.453-28.754c0-8.027 6.53-14.557 14.556-14.557 3.889 0 7.544 1.515 10.293 4.264l.698.698c-2.795 2.611-4.417 6.191-4.524 10.039h-14.023c-2.757 0-5 2.243-5 5v1.351c0 6.206 3.079 11.845 8 15.246v.718c0 1.224-.732 2.313-1.864 2.776l-8.136 3.327zm-1.366 31.583 2.968-1.214c1.447.78 3.066 1.424 4.83 1.921l1.287 5.153h-3.719v6h-4v-6h-2v6h-7.965c.373-5.255 3.665-9.842 8.599-11.86zm33.366 11.86v-6h-2v6h-4v-6h-3.719l1.288-5.153c1.764-.498 3.383-1.142 4.83-1.921l2.968 1.214c4.934 2.019 8.226 6.605 8.599 11.86z"/></svg>