<svg xmlns="http://www.w3.org/2000/svg" enable-background="new 0 0 64 64" height="64" width="64"><rect id="backgroundrect" width="100%" height="100%" x="0" y="0" fill="none" stroke="none"/><g class="currentLayer" style=""><title>Layer 1</title><path d="m48 62h-32-10c0-6.05 3.66-11.5 9.26-13.79l8.24-3.37 2.5 9.16 6-5 6 5 2.5-9.16 8.24 3.37c2.8 1.15 5.12 3.08 6.73 5.49 1.61 2.4 2.53 5.28 2.53 8.3z" fill="#4141e8" id="svg_1" class="" fill-opacity="1"/><path d="m40.5 44.84-2.5 9.16-6-5 5.54-5.54c.29.23.61.42.95.56z" fill="#ffffff" id="svg_2" class="" fill-opacity="1"/><path d="m32 49-6 5-2.5-9.16 2.01-.82c.34-.14.66-.33.95-.56z" fill="#ffffff" id="svg_3" class="" fill-opacity="1"/><path d="m47.03 23.4c-.72-.86-1.81-1.4-3.03-1.4v-2l-.04-.13c-.3.09-.63.13-.96.13-1.59 0-2.94-.93-3.59-2.27-.44.17-.91.27-1.41.27-1.2 0-2.27-.54-3-1.38-.73.84-1.8 1.38-3 1.38s-2.27-.54-3-1.38c-.73.84-1.8 1.38-3 1.38-.5 0-.97-.1-1.41-.27-.65 1.34-2 2.27-3.59 2.27-.33 0-.66-.04-.96-.13l-.04.13v2c-1.29 0-2.44.61-3.17 1.56l-1.65-1.94c-.43-.51-.81-1.06-1.07-1.67-.61-1.48-.71-3.18-.18-4.82.67-2.05 2.19-3.58 4.04-4.33.14-1.99 1.12-3.91 2.86-5.17 1.74-1.27 3.87-1.61 5.81-1.13 1.28-1.53 3.21-2.5 5.36-2.5s4.08.97 5.36 2.5c1.94-.48 4.07-.14 5.81 1.13 1.74 1.26 2.72 3.18 2.86 5.17 1.85.75 3.37 2.28 4.04 4.33.07.2.12.41.17.61.52 2.27-.3 4.64-1.91 6.32z" fill="#656d78" id="svg_4"/><g fill="#f0d0b4" id="svg_5" class=""><path d="m37.54 43.46-5.54 5.54-5.54-5.54c.96-.74 1.54-1.89 1.54-3.15v-1.24c1.23.8 2.57 1.45 4 1.93 1.43-.48 2.77-1.13 4-1.93v1.24c0 1.26.58 2.41 1.54 3.15z" id="svg_6"/><path d="m46.83 28.83c-.73.72-1.73 1.17-2.83 1.17h-.93-.01c.61-1.78.94-3.69.94-5.65v-2.35c1.22 0 2.31.54 3.03 1.4.61.7.97 1.61.97 2.6 0 1.1-.45 2.1-1.17 2.83z" id="svg_7"/><path d="m44 20v2 2.35c0 1.96-.33 3.87-.94 5.65-1.26 3.72-3.74 6.92-7.06 9.07-1.23.8-2.57 1.45-4 1.93-1.43-.48-2.77-1.13-4-1.93-1.84-1.19-3.42-2.71-4.69-4.46-1.01-1.4-1.81-2.96-2.37-4.61-.61-1.78-.94-3.69-.94-5.65v-2.35-2l.04-.13c.3.09.63.13.96.13 1.59 0 2.94-.93 3.59-2.27.44.17.91.27 1.41.27 1.2 0 2.27-.54 3-1.38.73.84 1.8 1.38 3 1.38s2.27-.54 3-1.38c.73.84 1.8 1.38 3 1.38.5 0 .97-.1 1.41-.27.65 1.34 2 2.27 3.59 2.27.33 0 .66-.04.96-.13z" id="svg_8"/><path d="m20 24.35c0 1.96.33 3.87.94 5.65h-.01-.93c-1.1 0-2.1-.45-2.83-1.17-.72-.73-1.17-1.73-1.17-2.83 0-.92.31-1.76.83-2.44.73-.95 1.88-1.56 3.17-1.56z" id="svg_9"/></g><circle cx="38" cy="23" r="1" id="svg_10"/><circle cx="26" cy="23" r="1" id="svg_11"/><path d="m36 32h-2c0 1.103-.897 2-2 2s-2-.897-2-2h-2c0 2.206 1.794 4 4 4s4-1.794 4-4z" id="svg_12"/><path d="m49.123 47.289-10.259-4.198c-1.133-.463-1.864-1.553-1.864-2.777v-.718c3.077-2.126 5.427-5.126 6.759-8.596h.241c2.757 0 5-2.243 5-5 0-.91-.262-1.752-.689-2.487l.734-.76c1.934-2.003 2.745-4.706 2.17-7.23-.053-.234-.117-.469-.193-.703-.668-2.057-2.13-3.739-4.056-4.693-.312-2.126-1.46-4.036-3.21-5.307-1.75-1.272-3.92-1.774-6.04-1.413-1.502-1.537-3.553-2.407-5.716-2.407s-4.214.87-5.716 2.407c-2.119-.359-4.29.141-6.04 1.413-1.75 1.271-2.897 3.181-3.21 5.307-1.926.954-3.388 2.636-4.056 4.693-.586 1.803-.511 3.761.212 5.513.265.642.666 1.274 1.226 1.932l1.19 1.4c-.374.7-.606 1.487-.606 2.335 0 2.757 2.243 5 5 5h.241c1.332 3.471 3.682 6.47 6.759 8.596v.718c0 1.224-.731 2.313-1.864 2.777l-10.259 4.197c-6 2.455-9.877 8.229-9.877 14.712v1h54v-1c0-6.483-3.877-12.257-9.877-14.711zm-9.823-1.859-1.856 6.805-3.963-3.303 4.202-4.202c.139.073.275.151.423.211zm5.114-16.472c.379-1.482.586-3.025.586-4.607v-1.167c1.161.414 2 1.514 2 2.816 0 1.512-1.129 2.754-2.586 2.958zm-29.533-13.52c.548-1.688 1.81-3.039 3.46-3.708l.578-.234.044-.623c.126-1.776 1.021-3.393 2.457-4.436 1.435-1.044 3.247-1.397 4.979-.966l.605.151.401-.478c1.146-1.362 2.821-2.144 4.595-2.144s3.449.782 4.595 2.145l.401.478.605-.151c1.729-.431 3.543-.078 4.979.966 1.436 1.043 2.331 2.66 2.457 4.436l.044.623.578.234c1.65.668 2.912 2.02 3.46 3.707.057.176.105.353.146.529.418 1.835-.219 3.903-1.66 5.396l-.624.647c-.58-.435-1.246-.759-1.981-.909v-.531c.661-.294 1.261-.73 1.753-1.292l-1.506-1.316c-.585.669-1.383 1.038-2.247 1.038-1.151 0-2.183-.653-2.69-1.704l-.398-.825-.856.325c-1.254.477-2.484.101-3.302-.834l-.754-.86-.753.861c-1.17 1.338-3.324 1.338-4.494 0l-.753-.861-.753.861c-.817.935-2.045 1.311-3.302.834l-.856-.325-.398.825c-.508 1.05-1.54 1.703-2.691 1.703-.864 0-1.662-.369-2.247-1.038l-1.506 1.316c.491.562 1.092.998 1.753 1.292v.531c-.785.16-1.49.521-2.095 1.003l-.965-1.135c-.422-.496-.717-.954-.899-1.398-.543-1.314-.6-2.781-.16-4.133zm2.119 10.562c0-1.302.839-2.402 2-2.816v1.167c0 1.582.207 3.125.586 4.607-1.457-.204-2.586-1.446-2.586-2.958zm4-1.649v-3.351c1.638 0 3.128-.786 4.056-2.096 1.408.283 2.833-.078 3.944-.922 1.725 1.311 4.275 1.311 6 0 1.111.844 2.535 1.206 3.944.922.928 1.31 2.418 2.096 4.056 2.096v3.351c0 7.023-4.406 13.247-11 15.591-6.594-2.344-11-8.568-11-15.591zm10.684 17.598.316.105.316-.105c.947-.316 1.855-.702 2.719-1.153.095.995.479 1.914 1.089 2.664l-4.124 4.126-4.125-4.125c.61-.751.994-1.669 1.089-2.664.864.449 1.773.836 2.72 1.152zm-5.79 2.993c.148-.061.284-.138.423-.211l4.202 4.202-3.963 3.303-1.856-6.805zm23.106 16.058v-6h-2v6h-30v-6h-2v6h-7.965c.373-5.255 3.665-9.842 8.6-11.861l7.2-2.945 2.61 9.571 6.555-5.463 6.556 5.463 2.61-9.571 7.2 2.946c4.935 2.018 8.227 6.605 8.6 11.86z" id="svg_13"/><polyline fill="none" stroke="#000000" stroke-dashoffset="" fill-rule="nonzero" marker-start="" marker-mid="" marker-end="" id="svg_16" points="32.17391304347825,26.747826617697005 32.17391304347825,26.747826617697005 " style="color: rgb(0, 0, 0);"/><path fill="none" fill-opacity="1" stroke="#000000" stroke-opacity="1" stroke-width="1" stroke-dasharray="none" stroke-linejoin="miter" stroke-linecap="butt" stroke-dashoffset="" fill-rule="nonzero" opacity="1" marker-start="" marker-mid="" marker-end="" id="svg_15" d="M26.260869565217376,30.57391357421875 " style="color: rgb(0, 0, 0);"/><path fill="none" fill-opacity="1" stroke="#000000" stroke-opacity="1" stroke-width="1" stroke-dasharray="none" stroke-linejoin="miter" stroke-linecap="butt" stroke-dashoffset="" fill-rule="nonzero" opacity="1" marker-start="" marker-mid="" marker-end="" id="svg_20" d="M33.39130434782608,30.747826617697005 " style="color: rgb(0, 0, 0);"/></g></svg>